Coordinates
version=1
nRows=8
nColumns=36
inDegrees=yes

Units are S.I. units (second, meters, Newtons, ...)
If the header above contains a line with 'inDegrees', this indicates whether rotational values are in degrees (yes) or radians (no).

endheader
time	pelvis_tilt	pelvis_list	pelvis_rotation	pelvis_tx	pelvis_ty	pelvis_tz	hip_flexion_r	hip_adduction_r	hip_rotation_r	knee_angle_r	knee_angle_r_beta	ankle_angle_r	subtalar_angle_r	mtp_angle_r	hip_flexion_l	hip_adduction_l	hip_rotation_l	knee_angle_l	knee_angle_l_beta	ankle_angle_l	subtalar_angle_l	mtp_angle_l	lumbar_extension	lumbar_bending	lumbar_rotation	arm_flex_r	arm_add_r	arm_rot_r	elbow_flex_r	pro_sup_r	arm_flex_l	arm_add_l	arm_rot_l	elbow_flex_l	pro_sup_l
      3.93333330	     -2.70901545	     -1.45005085	     -3.48910291	      0.85509661	      1.02621619	      0.07859404	     36.32460542	     -2.58210558	      6.87567789	     20.81988144	      0.36337548	      1.41820663	     -5.19069958	     -7.49999987	      8.52824054	      4.39779405	      6.53474032	     16.66506776	      0.29086030	     18.04149935	     -3.02481324	     -7.49999987	    -15.98462325	      1.30458371	     -4.93120057	     33.32226576	      9.85957514	     68.17319364	    119.10153820	    106.35671011	     54.29896252	     -0.86493105	     67.55616758	    127.59137969	    103.68067730
      3.95000000	     -2.65383644	     -1.51346361	     -3.33055414	      0.85496655	      1.02594318	      0.07856447	     36.22622348	     -2.56302916	      6.83819211	     20.74309405	      0.36203529	      1.52703403	     -5.24349358	     -7.49999987	      8.79957951	      4.39054301	      6.71342647	     17.27920231	      0.30157897	     18.46889581	     -3.04394671	     -7.49999987	    -16.15016613	      1.28039827	     -5.06300508	     33.26558958	      9.93034803	     68.19909261	    119.24246285	    106.76414779	     54.48252280	     -0.78057388	     67.51064632	    127.23660212	    103.96529343
      3.96666670	     -2.69394960	     -1.50768498	     -3.19205486	      0.85507872	      1.02332851	      0.07821707	     36.26872968	     -2.60984816	      6.79831518	     20.60958113	      0.35970505	      1.56909479	     -5.28831262	     -7.49999987	      9.22805944	      4.49525385	      6.92146443	     17.95993985	      0.31346008	     19.04310859	     -3.04739338	     -7.49999987	    -16.18450046	      1.16095715	     -5.14326975	     33.34171806	      9.78853928	     68.17728919	    119.77231496	    106.69609892	     54.69172679	     -0.52396076	     67.61916551	    126.77817405	    104.45857389
      3.98333330	     -2.60142618	     -1.52186372	     -3.02817714	      0.85479591	      1.02559155	      0.07839199	     36.11651336	     -2.65527188	      6.66111089	     20.50141081	      0.35781712	      1.63076602	     -5.22250764	     -7.49999987	      9.45555906	      4.56525556	      7.10611856	     18.49886206	      0.32286605	     19.39363609	     -3.05048730	     -7.49999987	    -16.44459162	      1.08288019	     -5.15129497	     33.62398855	      9.39530507	     68.27791663	    120.18512465	    106.78973472	     55.05466752	     -0.37760248	     67.99500633	    126.37004718	    104.37502412
      4.00000000	     -2.57921562	     -1.51966217	     -2.90821806	      0.85503567	      1.02558180	      0.07829576	     36.06559111	     -2.68580946	      6.58652275	     20.26063060	      0.35361471	      1.60531038	     -5.14444219	     -7.49999987	      9.77899022	      4.65506781	      7.30379828	     19.03483167	      0.33222049	     19.54925301	     -3.10280543	     -7.49999987	    -16.62851624	      1.04121869	     -5.07027377	     33.50468475	      9.05939881	     67.92783352	    120.44633298	    106.66244659	     55.10167506	     -0.17884118	     68.29564984	    126.08036701	    104.24336021
      4.01666670	     -2.54265618	     -1.49259575	     -2.83569847	      0.85478810	      1.02516162	      0.07838604	     36.05868512	     -2.70949474	      6.44475221	     20.13023128	      0.35133882	      1.59301935	     -5.03279280	     -7.49999987	     10.05517504	      4.75859358	      7.45546367	     19.51199633	      0.34054858	     19.63936939	     -3.17422861	     -7.49999987	    -16.85151560	      1.03931227	     -5.12340482	     33.72831576	      8.79964922	     67.86849981	    120.62684683	    106.69792456	     55.43211844	     -0.18272533	     68.54955045	    126.07221181	    104.18142784
      4.03333330	     -2.69203636	     -1.41879925	     -2.70115170	      0.85504021	      1.02488669	      0.07831300	     36.20411821	     -2.75748966	      6.39816978	     19.97235140	      0.34858329	      1.52316569	     -4.91561176	     -7.49999987	     10.52822240	      4.90538119	      7.55425895	     19.98834898	      0.34886250	     19.75438186	     -3.23974130	     -7.49999987	    -16.87224652	      0.99893704	     -5.05707102	     33.79883770	      8.49554528	     67.96456859	    120.84399736	    105.57427845	     55.47505836	     -0.07350914	     69.00465713	    126.15917232	    103.13167915
      4.05000000	     -2.59596446	     -1.36101028	     -2.66259342	      0.85491377	      1.02471812	      0.07859168	     36.04442018	     -2.72549697	      6.40791934	     19.69268184	      0.34370214	      1.33942122	     -4.93507405	     -7.49999987	     10.52770910	      4.97371448	      7.47220602	     20.10817696	      0.35095389	     19.69932310	     -3.20286994	     -7.49999987	    -17.11311608	      0.96823206	     -4.95210792	     33.90011159	      8.21786517	     67.56564159	    120.89446287	    106.51900916	     55.57245225	      0.04625222	     69.19312056	    126.04683073	    103.85294583
